<svg width="41" height="40" fill="none" xmlns="http://www.w3.org/2000/svg"><path fill-rule="evenodd" clip-rule="evenodd" d="M21.81 0h-2.856v12.65L14.214.922l-2.648 1.07 4.861 12.034L7.25 4.848l-2.02 2.02 8.796 8.796-11.399-4.98-1.144 2.618 12.061 5.27H.382v2.857h13.162l-12.06 5.27 1.143 2.617 11.399-4.98-8.796 8.796 2.02 2.02 9.177-9.177-4.861 12.034 2.649 1.07 4.739-11.73V40h2.857V27.35l4.739 11.729 2.649-1.07-4.862-12.034 9.177 9.177 2.02-2.02-8.795-8.796 11.399 4.98 1.143-2.618-12.06-5.27h13.161v-2.857H27.22l12.061-5.27-1.143-2.617-11.4 4.98 8.797-8.796-2.02-2.02-9.178 9.177L29.2 1.99 26.55.92l-4.738 11.73V0z" fill="#E94D35"/></svg>