<svg width="101" height="241" fill="none" xmlns="http://www.w3.org/2000/svg"><g clip-path="url(#clip0_1_432)"><path fill-rule="evenodd" clip-rule="evenodd" d="M128.916.587h-17.143V76.49L83.339 6.114l-15.895 6.422 29.171 72.2-55.062-55.063L29.43 41.795 82.206 94.57 13.813 64.689 6.95 80.398l72.367 31.618H.344v17.143h78.973L6.95 160.776l6.863 15.709 68.393-29.881-52.775 52.775L41.553 211.5l55.062-55.062-29.17 72.201 15.894 6.421 28.434-70.377v75.904h17.143v-75.904l28.434 70.377 15.894-6.421-29.17-72.201 55.062 55.062 12.121-12.121-52.775-52.775 68.393 29.881 6.863-15.709-72.366-31.617h78.972v-17.143h-78.973l72.367-31.618-6.863-15.71-68.393 29.882 52.775-52.775-12.121-12.122-55.062 55.063 29.17-72.2-15.894-6.422-28.434 70.377V.587z" fill="#E94D35"/></g><defs><clipPath id="clip0_1_432"><path fill="#fff" transform="translate(.344 .587)" d="M0 0h240v240H0z"/></clipPath></defs></svg>