<svg width="41" height="41" fill="none" xmlns="http://www.w3.org/2000/svg"><path d="M.844 20.024c0-10.77 8.73-19.5 19.5-19.5s19.5 8.73 19.5 19.5-8.73 19.5-19.5 19.5-19.5-8.73-19.5-19.5z" stroke="#969186"/><path d="M20.345 17.775a2.25 2.25 0 100 4.5 2.25 2.25 0 000-4.5zm0-1.5a3.75 3.75 0 110 7.501 3.75 3.75 0 010-7.5zm4.875-.187a.938.938 0 11-1.876 0 .938.938 0 011.875 0zm-4.875-2.063c-1.856 0-2.159.006-3.022.044-.588.028-.983.106-1.349.249-.325.126-.56.277-.81.527a2.169 2.169 0 00-.528.81c-.142.368-.221.761-.248 1.349-.039.828-.043 1.117-.043 3.021 0 1.856.005 2.159.043 3.022.028.587.107.983.248 1.348.128.326.278.56.527.81.252.252.487.403.81.527.37.143.765.223 1.35.25.828.039 1.117.043 3.021.043 1.856 0 2.159-.005 3.022-.043.587-.028.982-.107 1.348-.248a2.19 2.19 0 00.81-.527 2.17 2.17 0 00.528-.81c.143-.37.222-.765.249-1.35.039-.828.044-1.117.044-3.022 0-1.855-.006-2.158-.044-3.021-.028-.587-.106-.983-.249-1.349a2.183 2.183 0 00-.527-.81 2.165 2.165 0 00-.81-.528c-.368-.142-.762-.221-1.349-.248-.828-.04-1.117-.044-3.021-.044zm0-1.5c2.037 0 2.292.008 3.091.045.799.038 1.343.163 1.821.35.495.19.912.448 1.329.864.381.375.677.828.865 1.329.185.478.311 1.022.348 1.82.036.8.046 1.055.046 3.092 0 2.038-.008 2.292-.046 3.092-.037.799-.163 1.342-.348 1.82a3.662 3.662 0 01-.865 1.33 3.686 3.686 0 01-1.329.865c-.478.185-1.022.31-1.821.348-.8.036-1.054.045-3.091.045-2.038 0-2.293-.007-3.092-.045-.799-.037-1.342-.163-1.821-.348a3.667 3.667 0 01-1.329-.865 3.678 3.678 0 01-.865-1.33c-.186-.477-.311-1.021-.348-1.82-.036-.8-.046-1.054-.046-3.092 0-2.037.008-2.292.046-3.091.037-.8.162-1.343.348-1.821a3.67 3.67 0 01.865-1.33 3.673 3.673 0 011.329-.864c.479-.186 1.021-.311 1.821-.349.8-.035 1.054-.045 3.091-.045z" fill="#BDB8AD"/></svg>