<svg width="99" height="17" fill="none" xmlns="http://www.w3.org/2000/svg"><path fill-rule="evenodd" clip-rule="evenodd" d="M20.348.037L.474 7.957a.196.196 0 00-.095.084.205.205 0 00-.035.114.202.202 0 00.13.19l5.9 2.132a.19.19 0 00.1.011.214.214 0 00.091-.037L17.76 2.279a.023.023 0 01.018 0 .035.035 0 01.017.01.02.02 0 01.001.008.02.02 0 01-.001.008.024.024 0 010 .018l-9.909 8.635a.214.214 0 00-.054.072.206.206 0 00-.016.088v4.599a.189.189 0 00.036.116.198.198 0 00.322.01l2.86-3.532a.206.206 0 01.102-.067.201.201 0 01.124 0l3.646 1.324a.2.2 0 00.15 0 .214.214 0 00.106-.108L20.613.302a.197.197 0 00.01-.114.192.192 0 00-.055-.103.198.198 0 00-.217-.048" fill="#131416"/><path d="M26.63 1.633h-1.797l.026 10.964h1.796L26.63 1.633zm5.655 3.075c-.908 0-1.74.327-2.26.982v-.818H28.33l.02 7.723h1.693l-.013-5.113a2.02 2.02 0 011.89-1.224c1.078 0 1.695.767 1.698 1.988l.01 4.35h1.694l-.012-4.62c0-1.997-1.18-3.261-3.026-3.257m10.035.119l-2.346 5.413-2.353-5.4h-1.878l3.498 7.716h1.495l3.473-7.734-1.89.005zm6.094-.168c-.987.017-1.933.4-2.653 1.076a3.99 3.99 0 001.996 6.833 3.976 3.976 0 002.814-.528 3.995 3.995 0 001.487-5.14 3.983 3.983 0 00-3.644-2.24zm.015 6.457c-1.369 0-2.328-1.06-2.33-2.434 0-1.375.945-2.443 2.318-2.455 1.374-.011 2.313 1.062 2.316 2.437.003 1.374-.949 2.441-2.3 2.444l-.004.008zm6.926-6.326H53.66l.021 7.724h1.692l-.02-7.724zm0-2.978H53.66v1.568h1.694V1.823zm5.399 4.392a2.298 2.298 0 012.112 1.353l1.47-.805a3.99 3.99 0 00-3.593-2.127c-2.303.003-4.05 1.743-4.05 4.032 0 2.289 1.771 4.01 4.082 4.007a3.972 3.972 0 003.582-2.142l-1.48-.805a2.3 2.3 0 01-2.105 1.365c-1.369 0-2.342-1.06-2.345-2.435-.004-1.375.965-2.443 2.335-2.455m8.489-1.587c-2.34 0-4.02 1.758-4.007 4.029 0 2.341 1.689 4.012 4.024 4.007 1.609 0 2.818-.703 3.505-1.8l-1.287-.923c-.398.68-1.125 1.177-2.198 1.18-1.277 0-2.297-.83-2.377-2.096l6.043-.015c.015-.245.015-.386.015-.556 0-2.484-1.703-3.824-3.719-3.82l.002-.006zm-2.27 3.158c.23-1.145 1.226-1.72 2.214-1.72s1.878.598 2.066 1.709l-4.28.011zm27.355-3.219h-.06a3.966 3.966 0 00-3.707 2.469c-.2.488-.3 1.011-.297 1.539v.02a3.986 3.986 0 002.48 3.714c.49.199 1.013.297 1.541.291h.03a3.95 3.95 0 002.846-1.155 3.981 3.981 0 001.17-2.844v-.026a3.98 3.98 0 00-4.002-4.001l-.001-.007zm-.02 6.464c-1.37 0-2.326-1.06-2.329-2.433-.003-1.373.949-2.445 2.316-2.455 1.367-.01 2.313 1.062 2.316 2.437.003 1.374-.949 2.441-2.303 2.444v.007zM87.34 4.728v.71c-.541-.555-1.343-.861-2.266-.86-2.23 0-3.844 1.722-3.86 3.889a3.81 3.81 0 002.377 3.608c.475.191.983.285 1.495.275.926 0 1.725-.328 2.262-.902v.915c0 1.202-.653 1.845-1.539 2.042-2.204.396-3.575-.27-3.575-.27l-.54 1.387c.787.491 3.228.632 4.362.382 1.633-.288 2.992-1.358 2.987-3.527l-.015-7.651-1.688.002zm.011 4.974a2.333 2.333 0 01-2.061 1.085c-1.338 0-2.311-.998-2.327-2.325a2.237 2.237 0 01.163-.902 2.268 2.268 0 012.16-1.437 2.358 2.358 0 012.063 1.06l.002 2.519zM76.117 11.02l2.31-3.143c.465-.61 1.208-1.636 1.347-1.86.643-1.065.722-2.185.163-3.302-.456-.91-1.26-1.353-2.252-1.473-1.39-.177-2.835.468-3.489 1.787a2.743 2.743 0 00-.294.921l1.482.327c.022-.063.044-.116.058-.163a1.865 1.865 0 011.04-1.229c.54-.247 1.316-.15 1.734.211.7.61.69 1.636.183 2.29-.085.112-4.469 5.708-4.469 5.708a.264.264 0 00-.062.176v1.238l6.505-.016v-1.473h-4.256z" fill="#131416"/></svg>