<svg width="33" height="32" fill="none" xmlns="http://www.w3.org/2000/svg"><path fill-rule="evenodd" clip-rule="evenodd" d="M17.487 0h-2.285v10.12L11.41.738l-2.119.856 3.89 9.627-7.342-7.342-1.616 1.616 7.036 7.037L2.14 8.547l-.915 2.094 9.65 4.216H.344v2.286h10.53l-9.65 4.216.915 2.094 9.12-3.984-7.037 7.037 1.616 1.616 7.342-7.342-3.89 9.627 2.12.856 3.79-9.384V32h2.286V21.88l3.792 9.383 2.119-.856-3.89-9.627 7.342 7.342 1.616-1.616-7.036-7.037 9.119 3.984.915-2.094-9.65-4.216h10.53v-2.286h-10.53l9.65-4.216-.915-2.094-9.12 3.984 7.037-7.037-1.616-1.616-7.341 7.342 3.889-9.627-2.12-.856-3.79 9.383V0z" fill="#E94D35"/></svg>