<svg width="33" height="33" fill="none" xmlns="http://www.w3.org/2000/svg"><g clip-path="url(#clip0_1_487)"><path fill-rule="evenodd" clip-rule="evenodd" d="M17.487.024h-2.285v10.12L11.41.762l-2.119.857 3.89 9.626-7.342-7.341L4.223 5.52l7.036 7.037L2.14 8.57l-.915 2.095 9.65 4.216H.344v2.285h10.53l-9.65 4.216.915 2.095 9.12-3.985-7.037 7.037 1.616 1.616 7.342-7.341-3.89 9.626 2.12.856 3.79-9.383v10.12h2.286v-10.12l3.792 9.383 2.119-.856-3.89-9.626 7.342 7.341 1.616-1.616-7.036-7.037 9.119 3.985.915-2.095-9.65-4.216h10.53V14.88h-10.53l9.65-4.215-.915-2.095-9.12 3.985 7.037-7.037-1.616-1.616-7.341 7.341 3.889-9.626-2.12-.857-3.79 9.384V.025z" fill="#fff"/></g><defs><clipPath id="clip0_1_487"><path fill="#fff" transform="translate(.345 .024)" d="M0 0h32v32H0z"/></clipPath></defs></svg>