<svg width="123" height="13" fill="none" xmlns="http://www.w3.org/2000/svg"><g clip-path="url(#clip0_1_382)" fill="#131416"><path d="M12.682 4.104c0-1.99-1.33-3.798-3.853-3.812C7.132.292 2.042.275.345.275v11.52h2.018V7.951h5.341l3.12 3.844h2.4v-.147L9.982 7.72c2.035-.445 2.708-2.038 2.708-3.616h-.008zM2.372 5.992v-3.68h6.465c1.268 0 1.834.92 1.834 1.84 0 .921-.55 1.842-1.834 1.842l-6.466-.002zM26.667.28c-1.681 0-6.756.016-8.438.016v11.503h2.017V8.41h6.421c5.243 0 5.228-8.135 0-8.135v.004zm0 6.142h-6.42V2.345h6.42c2.567 0 2.583 4.077 0 4.077zm36.876-.574c.993-.479 1.39-1.332 1.39-2.221 0-2.307-1.574-3.335-3.684-3.335h-8.47v11.503h8.47c2.216 0 4.004-.82 4.004-3.385 0-.723-.458-2.153-1.71-2.562zm-8.778-3.585h6.482c1.285 0 1.681.888 1.681 1.414 0 .656-.411 1.233-1.681 1.233h-6.48l-.002-2.647zm6.482 7.513h-6.48v-2.96h6.482c.825 0 2.003.542 2.003 1.578 0 1.084-1.17 1.382-2.003 1.382M72.1.292h-2.019v11.505h10.916V9.79H72.1V.292zm15.743 0H85.84v11.505h2.003V.292zm15.127 8.326a4.311 4.311 0 01-.975.78 5.24 5.24 0 01-1.274.52c-.504.13-1.02.193-1.537.189a5.678 5.678 0 01-2-.327 4.262 4.262 0 01-1.45-.892 3.726 3.726 0 01-.886-1.312 4.163 4.163 0 01-.299-1.552 4.21 4.21 0 01.299-1.57 3.72 3.72 0 01.885-1.312c.426-.396.92-.696 1.455-.883a5.759 5.759 0 011.998-.319 6.11 6.11 0 011.467.172c.427.103.842.258 1.237.462.355.184.684.423.975.71.175.177.334.372.474.582l1.701-1.011a5.562 5.562 0 00-.742-.923A6.116 6.116 0 00102.99.929a6.7 6.7 0 00-1.674-.667 8.225 8.225 0 00-2.025-.237 7.931 7.931 0 00-2.875.491 6.343 6.343 0 00-2.117 1.311 5.577 5.577 0 00-1.303 1.893 5.942 5.942 0 00-.461 2.301c0 .794.157 1.579.461 2.302a5.576 5.576 0 001.303 1.893 6.299 6.299 0 002.117 1.31c.92.342 1.89.51 2.863.498a8.143 8.143 0 002.088-.254 6.717 6.717 0 001.706-.707c.485-.281.93-.634 1.323-1.048.285-.304.537-.643.749-1.01L103.436 8a3.573 3.573 0 01-.466.63M44.248.28a1.608 1.608 0 00-.661.14c-.21.093-.4.23-.561.402a1.87 1.87 0 00-.375.603 1.98 1.98 0 00-.131.71h3.22v3.97a8.534 8.534 0 01-.324 1.552 3.73 3.73 0 01-.885 1.313c-.426.396-.92.7-1.453.892a4.21 4.21 0 01-3.316 0 4.252 4.252 0 01-1.454-.892 3.726 3.726 0 01-.885-1.313 8.55 8.55 0 01-.324-1.552V.28h-1.993v5.826a5.88 5.88 0 00.452 2.303 5.516 5.516 0 001.303 1.892 6.3 6.3 0 002.118 1.304 7.372 7.372 0 004.877 0 6.302 6.302 0 002.116-1.31c.556-.523 1-1.168 1.303-1.892.303-.724.457-1.51.453-2.303V.28h-3.48zm70.599 1.906l-4.713 9.61h-2.007L113.729.362v-.07h2.977l5.639 11.503h-2.007l-1.198-2.432h-3.591c-.233 0-.464-.05-.68-.146a1.779 1.779 0 01-.576-.414 1.92 1.92 0 01-.385-.62 2.022 2.022 0 01-.136-.731h4.428l-2.588-5.266h-.765z"/></g><defs><clipPath id="clip0_1_382"><path fill="#fff" transform="translate(.345 .024)" d="M0 0h122v12H0z"/></clipPath></defs></svg>