<svg width="73" height="17" fill="none" xmlns="http://www.w3.org/2000/svg"><path d="M18.014 3.358L13.711.416a2.229 2.229 0 00-1.255-.385c-.45 0-.889.135-1.256.385l-1.4.957L8.277 2.41l-1.38.947c-.28.192-.51.446-.667.74a2.017 2.017 0 00-.242.953v5.961a.478.478 0 01-.206.397l-1.493.987 1.43.976 1.009-.668c.28-.192.51-.446.668-.74.158-.294.24-.62.241-.952v-5.96a.485.485 0 01.216-.405l4.303-2.941a.53.53 0 01.6 0l1.123.767 1.429.975 1.752 1.197a.5.5 0 01.16.177.47.47 0 01.057.228v5.963a.49.49 0 01-.057.228.501.501 0 01-.16.176l-4.304 2.93a.549.549 0 01-.637-.024l-.82-.494-1.441 1 1.342.812a2.234 2.234 0 002.511 0l4.303-2.941c.28-.192.51-.445.667-.738.158-.293.241-.618.243-.949V5.051c0-.332-.083-.658-.241-.953a2.107 2.107 0 00-.669-.74z" fill="#131416"/><path d="M10.99 13.642l1.38-.944a2.11 2.11 0 00.667-.738c.158-.294.242-.619.243-.949V5.05a.479.479 0 01.207-.397l1.49-.988-1.43-.975-1.007.667c-.28.192-.51.446-.667.74-.158.295-.24.621-.24.952v5.963a.5.5 0 01-.217.404l-4.304 2.93a.53.53 0 01-.6 0l-1.122-.767-1.427-.972-1.752-1.197a.501.501 0 01-.158-.174.478.478 0 01-.06-.224V5.05a.5.5 0 01.216-.405l4.304-2.94a.553.553 0 01.643.023l.795.483 1.46-.988-1.338-.81A2.228 2.228 0 006.817.027c-.45 0-.888.135-1.255.385L1.254 3.357c-.281.192-.51.446-.669.74-.158.295-.24.621-.24.952v5.962c0 .331.082.658.24.952a2.1 2.1 0 00.669.74l4.303 2.942c.366.25.805.385 1.255.385.45 0 .89-.135 1.256-.386l1.47-1.004 1.45-.988.001-.01zM28.855 1.905h-3.208v1.823a.774.774 0 01-.233.551.84.84 0 01-.567.24l-.854.02v2.434h1.654v4.368c0 2.76 1.139 3.654 5.898 3.356v-2.506c-2.42.239-2.607-.397-2.607-1.171V6.969h2.607V4.486h-2.69V1.905zM41.764.245c-1.158 0-1.793.247-1.793 1.56 0 1.312.633 1.559 1.793 1.559 1.14 0 1.736-.28 1.736-1.56 0-1.317-.595-1.559-1.736-1.559zm1.617 4.241h-3.25v10.129h3.25V4.486zm8.359-.179c-1.635 0-2.67.536-3.166 1.152V.574h-3.207v14.04c.036 0 .07 0 .107-.007h.144c.359 0 .71-.099 1.013-.285a1.83 1.83 0 00.694-.763v-.007a.349.349 0 01.115-.134.37.37 0 01.492.066c.615.714 1.472 1.142 2.688 1.258.253.033.508.05.763.051 1.841 0 3.012-.746 3.713-1.827.038-.058.077-.123.113-.177l.072-.131a4.59 4.59 0 00.148-.295l.032-.074a6.61 6.61 0 00.147-.37c0-.014.009-.028.013-.042a5.24 5.24 0 00.12-.403c0-.018.01-.032.013-.048.029-.115.054-.231.076-.35l.029-.14c.008-.047.01-.075.016-.112.07-.428.105-.86.107-1.293 0-2.603-.972-5.224-4.242-5.224zm-1.096 7.923c-1.801 0-2.09-1.09-2.09-2.7 0-1.549.227-2.681 2.069-2.681 1.759 0 2.048 1.111 2.048 2.682 0 1.587-.29 2.7-2.027 2.7zm11.462-7.923c-3.849 0-4.76 1.489-4.76 3.654h3.146c0-.814.372-1.41 1.697-1.41 1.407 0 1.862.618 1.862 1.787l-2.773.278c-2.959.299-4.346 1.11-4.346 3.059 0 2.125 1.904 3.118 4.387 3.118 1.606 0 2.67-.448 3.398-1.294a.373.373 0 01.493-.066c.05.034.09.08.116.133.15.313.391.578.694.764a1.94 1.94 0 001.013.284h.246V8.875c-.003-2.622-.67-4.568-5.173-4.568zm-.129 8.301c-1.18 0-1.672-.437-1.672-1.053 0-.476.394-.833 1.672-.953l2.07-.238c-.02 1.252-.62 2.244-2.07 2.244zM72.344.574h-3.227v14.04h3.227V.575zM39.028 4.291c-.104 0-.2.007-.3.011a3.814 3.814 0 00-2.316.617 3.363 3.363 0 00-.779.663.375.375 0 01-.493.064.35.35 0 01-.115-.133 1.832 1.832 0 00-.698-.763 1.94 1.94 0 00-1.017-.281h-.246v.023h-.008v10.124h3.227V9.43c0-1.351.373-2.641 2.794-2.403v-2.7h-.044c-.001-.022-.002-.036-.005-.036z" fill="#131416"/></svg>