<svg width="41" height="41" fill="none" xmlns="http://www.w3.org/2000/svg"><path d="M.844 20.024c0-10.77 8.73-19.5 19.5-19.5s19.5 8.73 19.5 19.5-8.73 19.5-19.5 19.5-19.5-8.73-19.5-19.5z" stroke="#969186"/><path d="M27.966 15.268a6.29 6.29 0 01-1.802.493 3.147 3.147 0 001.38-1.735 6.267 6.267 0 01-1.992.76 3.137 3.137 0 00-5.344 2.861 8.906 8.906 0 01-6.465-3.277 3.136 3.136 0 00.97 4.188 3.126 3.126 0 01-1.42-.392v.039a3.138 3.138 0 002.516 3.075 3.16 3.16 0 01-1.417.054 3.14 3.14 0 002.93 2.18 6.297 6.297 0 01-4.643 1.298 8.872 8.872 0 004.807 1.41c5.77 0 8.925-4.78 8.925-8.925a9.22 9.22 0 00-.01-.405 6.375 6.375 0 001.566-1.624h-.001z" fill="#BDB8AD"/></svg>