<svg width="105" height="13" fill="none" xmlns="http://www.w3.org/2000/svg"><path d="M5.106 11.84L.345.21h2.439l3.485 8.676L9.775.21h2.44L7.428 11.84H5.106zm9.209-6.838h7.153a3.746 3.746 0 00-1.314-1.99 3.516 3.516 0 00-2.24-.778 3.58 3.58 0 00-2.31.768 3.73 3.73 0 00-1.29 2zm-.717 5.281a5.79 5.79 0 01-1.328-1.938 5.7 5.7 0 01-.44-2.295 5.815 5.815 0 01.434-2.302c.3-.73.745-1.396 1.31-1.955A5.718 5.718 0 0115.52.463a5.809 5.809 0 012.33-.438 6.17 6.17 0 014.217 1.593 5.667 5.667 0 011.395 1.9c.325.722.492 1.503.492 2.293.002.349-.021.698-.069 1.044h-9.571c.035.41.153.809.346 1.174.193.365.458.69.779.954a3.6 3.6 0 002.401.825c.531.02 1.06-.075 1.55-.275.49-.201.93-.503 1.29-.887l2.773.024a6.126 6.126 0 01-2.275 2.432 6.106 6.106 0 01-3.27.92 5.957 5.957 0 01-2.339-.431 5.87 5.87 0 01-1.972-1.308zM25.53 11.84V5.776c0-1.861.457-3.261 1.371-4.2A4.77 4.77 0 0128.555.495a4.841 4.841 0 011.959-.326h.237v2.213h-.237c-1.77 0-2.654 1.132-2.652 3.395v6.062h-2.333zm12.157-9.606a3.714 3.714 0 00-1.49.262c-.473.188-.9.472-1.255.832a3.869 3.869 0 00-1.098 2.695c0 1.003.393 1.968 1.098 2.694.35.36.771.643 1.239.833a3.7 3.7 0 001.475.272c.5.012.998-.079 1.46-.267.463-.188.88-.469 1.226-.825a3.921 3.921 0 001.077-2.694c0-1-.384-1.962-1.077-2.694a3.577 3.577 0 00-1.224-.828 3.633 3.633 0 00-1.462-.267l.03-.013zm-4.35-.465a6.212 6.212 0 017.733-.758 6.022 6.022 0 012.461 3.252 5.909 5.909 0 01-.198 4.046 6.052 6.052 0 01-2.77 3.005 6.224 6.224 0 01-4.08.597A6.145 6.145 0 0132.94 9.83a5.945 5.945 0 01-1.392-3.814c-.012-.79.14-1.575.447-2.305a5.793 5.793 0 011.34-1.942zm22.46 10.071h-2.651l-3.057-4.163-3.057 4.162h-2.676l4.405-6.045L44.71.21h2.631l2.724 3.722L52.837.21h2.631l-4.051 5.584 4.38 6.045zm2.693-.037v-3.89h-2.123V6.564h2.124V6.15l.048-1.418c.128-1.412.578-2.521 1.351-3.327A4.77 4.77 0 0162.978.01v1.422a3.524 3.524 0 00-2.024 1.047 3.608 3.608 0 00-.913 2.256l-.048 1.418v.415h3.736v1.347h-3.722v3.89l-1.516-.003zM67.65.213h-1.516v11.63h1.516V.213zM79.565 2.78a4.378 4.378 0 00-1.488-1.001 4.446 4.446 0 00-1.772-.327 4.532 4.532 0 00-1.78.33 4.465 4.465 0 00-1.5.997 4.62 4.62 0 00-1.342 3.25 4.62 4.62 0 001.343 3.25c.421.433.929.777 1.492 1.008a4.514 4.514 0 001.777.34 4.46 4.46 0 001.766-.329 4.392 4.392 0 001.483-.995 4.696 4.696 0 001.32-3.257 4.696 4.696 0 00-1.32-3.257l.02-.01zm-7.606-1.011a6.212 6.212 0 017.733-.758 6.023 6.023 0 012.461 3.252 5.91 5.91 0 01-.198 4.046 6.053 6.053 0 01-2.769 3.005 6.224 6.224 0 01-4.082.597 6.145 6.145 0 01-3.54-2.081 5.945 5.945 0 01-1.392-3.814 5.704 5.704 0 01.446-2.305 5.791 5.791 0 011.34-1.942zM94.272 2.78a4.377 4.377 0 00-1.487-1.001 4.445 4.445 0 00-1.772-.327 4.533 4.533 0 00-1.78.33 4.466 4.466 0 00-1.5.997 4.62 4.62 0 00-1.343 3.25 4.62 4.62 0 001.343 3.25c.421.434.93.777 1.492 1.009a4.506 4.506 0 001.778.339c.605.011 1.205-.1 1.764-.328a4.378 4.378 0 001.481-.996 4.693 4.693 0 001.32-3.257 4.693 4.693 0 00-1.32-3.257l.024-.01zM86.67 1.768a6.212 6.212 0 017.733-.758 6.023 6.023 0 012.461 3.252 5.91 5.91 0 01-.198 4.046 6.053 6.053 0 01-2.769 3.005 6.224 6.224 0 01-4.082.597 6.145 6.145 0 01-3.54-2.081 5.945 5.945 0 01-1.393-3.814 5.7 5.7 0 01.447-2.305 5.788 5.788 0 011.34-1.942zM98.893 11.84V5.81c0-1.874.438-3.285 1.314-4.233a4.56 4.56 0 011.612-1.092 4.624 4.624 0 011.929-.326c.115-.002.23.005.343.02v1.422a1.886 1.886 0 00-.343-.024 3.05 3.05 0 00-1.348.254 2.997 2.997 0 00-1.091.817c-.599.712-.899 1.766-.899 3.163v6.028h-1.517zm3.902-1.294h.257a.413.413 0 00.25-.054.162.162 0 00.05-.063.153.153 0 00.015-.079.174.174 0 00-.03-.1.204.204 0 00-.09-.068.738.738 0 00-.212-.02h-.24v.384zm-.213.724V9.987h.453c.115-.006.231.005.343.033a.341.341 0 01.226.314.322.322 0 01-.026.133.316.316 0 01-.077.112.413.413 0 01-.274.115c.042.016.08.04.113.07.073.078.137.163.192.253l.161.253h-.257l-.117-.202a.982.982 0 00-.223-.3.26.26 0 00-.168-.044h-.133v.546h-.213zm.535-1.657a1.041 1.041 0 00-.497.131.917.917 0 00-.381.367.974.974 0 00-.004.994.941.941 0 00.378.367 1.01 1.01 0 001.008 0 .941.941 0 00.378-.367.994.994 0 00-.004-.994.933.933 0 00-.381-.367 1.04 1.04 0 00-.476-.131h-.021zm0-.195c.209 0 .414.052.597.151.192.102.35.255.456.441.105.184.16.39.161.6.001.208-.055.413-.161.593a1.107 1.107 0 01-.449.444 1.256 1.256 0 01-1.208 0 1.14 1.14 0 01-.439-.448 1.182 1.182 0 01-.163-.596 1.182 1.182 0 01.619-1.037c.187-.1.396-.15.608-.148h-.021z" fill="#131416"/></svg>